# xmcd CD database file
#
# Track frame offsets:
#	150
#	29875
#	56093
#	71920
#	92455
#	131575
#	153210
#
# Disc length: 2448 seconds
#
# Revision: 0
# Processed by: cddbd v1.4PL0 Copyright (c) Steve Scherf et al.
# Submitted via: CDex 1.50beta10
#
DISCID=5f098e07
DTITLE=Charles Brown - Legend
DYEAR=1900
DGENRE=Blues
TTITLE0=Drifting Blues
TTITLE1=All Is Forgiven
TTITLE2=The Combination
TTITLE3=New Merry Christmas Baby
TTITLE4=I Want To Go Home
TTITLE5=Black Night
TTITLE6=Rainy, Rainy Day
EXTD=
EXTT0=
EXTT1=
EXTT2=
EXTT3=
EXTT4=
EXTT5=
EXTT6=
PLAYORDER=
